{"title":"Lone Survivor (2013) 1080p BluRay x264 [Dual Audio] [ENG(5.1)-HI","uid":10410228,"size":3827824270,"categoryP":"video","categoryS":"hd___movies","magnet":"?xt=urn:btih:1fd53dbe0b5b4076195da20e45cada9c378abd14&amp;dn=Lone+Survivor+%282013%29+1080p+BluRay+x264+%5BDual+Audio%5D+%5BENG%285.1%29-HI&amp;tr=udp%3A%2F%2Ftracker.openbittorrent.com%3A80&amp;tr=udp%3A%2F%2Fopen.demonii.com%3A1337&amp;tr=udp%3A%2F%2Ftracker.coppersurfer.tk%3A6969&amp;tr=udp%3A%2F%2Fexodus.desync.com%3A6969","seeders":3,"leechers":3,"uploader":"boniin","files":19,"time":1403520252,"description":"General\nFormat                                   : Matroska\nFormat version                           : Version 4 / Version 2\nFile size                                : 3.54 GiB\nDuration                                 : 2h 1mn\nOverall bit rate                         : 4 172 Kbps\nMovie name                               : ~Invincible~\nEncoded date                             : UTC 2014-06-23 04:22:05\nWriting application                      : mkvmerge v6.9.1 ('Blue Panther') 32bit built on Apr 18 2014 18:15:44\nWriting library                          : libebml v1.3.0 + libmatroska v1.4.1\n\nVideo\nID                                       : 1\nFormat                                   : AVC\nFormat/Info                              : Advanced Video Codec\nFormat profile                           : &lt;a class=&quot;__cf_email__&quot; href=&quot;/cdn-cgi/l/email-protection&quot; data-cfemail=&quot;0941606e6149453d2738&quot;&gt;[email&amp;#160;protected]&lt;/a&gt;&lt;script cf-hash='f9e31' type=&quot;text/javascript&quot;&gt;\n/* &lt;![CDATA[ */!function(){try{var t=&quot;currentScript&quot;in document?document.currentScript:function(){for(var t=document.getElementsByTagName(&quot;script&quot;),e=t.length;e--;)if(t[e].getAttribute(&quot;cf-hash&quot;))return t[e]}();if(t&amp;&amp;t.previousSibling){var e,r,n,i,c=t.previousSibling,a=c.getAttribute(&quot;data-cfemail&quot;);if(a){for(e=&quot;&quot;,r=parseInt(a.substr(0,2),16),n=2;a.length-n;n+=2)i=parseInt(a.substr(n,2),16)^r,e+=String.fromCharCode(i);e=document.createTextNode(e),c.parentNode.replaceChild(e,c)}}}catch(u){}}();/* ]]&gt; */&lt;/script&gt;\nFormat settings, CABAC                   : Yes\nFormat settings, ReFrames                : 5 frames\nCodec ID                                 : V_MPEG4/ISO/AVC\nDuration                                 : 2h 1mn\nBit rate                                 : 3 500 Kbps\nWidth                                    : 1 920 pixels\nHeight                                   : 800 pixels\nDisplay aspect ratio                     : 2.40:1\nFrame rate mode                          : Constant\nFrame rate                               : 23.976 fps\nColor space                              : YUV\nChroma subsampling                       : 4:2:0\nBit depth                                : 8 bits\nScan type                                : Progressive\nBits/(Pixel*Frame)                       : 0.095\nStream size                              : 2.90 GiB (82%)\nWriting library                          : x264 core 138 r2358 9e941d1\nEncoding settings                        : cabac=1 / ref=5 / deblock=1:0:0 / analyse=0x3:0x133 / me=umh / subme=10 / psy=1 / psy_rd=1.00:0.00 / mixed_ref=1 / me_range=24 / chroma_me=1 / trellis=2 / 8x8dct=1 / cqm=0 / deadzone=21,11 / fast_pskip=1 / chroma_qp_offset=-2 / threads=18 / lookahead_threads=3 / sliced_threads=0 / nr=0 / decimate=1 / interlaced=0 / bluray_compat=0 / constrained_intra=0 / bframes=8 / b_pyramid=2 / b_adapt=2 / b_bias=0 / direct=3 / weightb=1 / open_gop=0 / weightp=2 / keyint=240 / keyint_min=23 / scenecut=40 / intra_refresh=0 / rc_lookahead=60 / rc=2pass / mbtree=1 / bitrate=3500 / ratetol=1.0 / qcomp=0.60 / qpmin=0 / qpmax=69 / qpstep=4 / cplxblur=20.0 / qblur=0.5 / vbv_maxrate=62500 / vbv_bufsize=78125 / nal_hrd=none / ip_ratio=1.40 / aq=1:1.00\nLanguage                                 : English\nDefault                                  : Yes\nForced                                   : No\n\nAudio #1\nID                                       : 2\nFormat                                   : AC-3\nFormat/Info                              : Audio Coding 3\nMode extension                           : CM (complete main)\nFormat settings, Endianness              : Big\nCodec ID                                 : A_AC3\nDuration                                 : 2h 1mn\nBit rate mode                            : Constant\nBit rate                                 : 224 Kbps\nChannel(s)                               : 2 channels\nChannel positions                        : Front: L R\nSampling rate                            : 48.0 KHz\nBit depth                                : 16 bits\nCompression mode                         : Lossy\nDelay relative to video                  : 424ms\nStream size                              : 194 MiB (5%)\nTitle                                    : ORG DD2.0 @224Kbps~Invincible\nLanguage                                 : Hindi\nDefault                                  : Yes\nForced                                   : No\n\nAudio #2\nID                                       : 3\nFormat                                   : AC-3\nFormat/Info                              : Audio Coding 3\nMode extension                           : CM (complete main)\nFormat settings, Endianness              : Big\nCodec ID                                 : A_AC3\nDuration                                 : 2h 1mn\nBit rate mode                            : Constant\nBit rate                                 : 448 Kbps\nChannel(s)                               : 6 channels\nChannel positions                        : Front: L C R, Side: L R, LFE\nSampling rate                            : 48.0 KHz\nBit depth                                : 16 bits\nCompression mode                         : Lossy\nStream size                              : 389 MiB (11%)\nTitle                                    : DD 5.1 @448Kbps ~Invincible\nLanguage                                 : English\nDefault                                  : No\nForced                                   : No\n\nMenu\n00:00:00.000                             : en:00:00:00.000\n00:05:59.192                             : en:00:05:59.192\n00:09:59.057                             : en:00:09:59.057\n00:17:18.371                             : en:00:17:18.371\n00:24:19.750                             : en:00:24:19.750\n00:33:20.499                             : en:00:33:20.499\n00:45:49.580                             : en:00:45:49.580\n00:53:06.934                             : en:00:53:06.934\n01:01:54.211                             : en:01:01:54.211\n01:09:18.780                             : en:01:09:18.780\n01:16:07.188                             : en:01:16:07.188\n01:22:24.481                             : en:01:22:24.481\n01:28:50.492                             : en:01:28:50.492\n01:36:46.426                             : en:01:36:46.426\n01:43:45.678                             : en:01:43:45.678\n01:52:13.227                             : en:01:52:13.227\n","torrent":{"xt":"urn:btih:1fd53dbe0b5b4076195da20e45cada9c378abd14","amp;dn":"Lone+Survivor+%282013%29+1080p+BluRay+x264+%5BDual+Audio%5D+%5BENG%285.1%29-HI","amp;tr":["udp%3A%2F%2Ftracker.openbittorrent.com%3A80","udp%3A%2F%2Fopen.demonii.com%3A1337","udp%3A%2F%2Ftracker.coppersurfer.tk%3A6969","udp%3A%2F%2Fexodus.desync.com%3A6969"],"infoHash":"1fd53dbe0b5b4076195da20e45cada9c378abd14","infoHashBuffer":{"type":"Buffer","data":[31,213,61,190,11,91,64,118,25,93,162,14,69,202,218,156,55,138,189,20]},"announce":[],"urlList":[]}}